<svg width="62" height="48" viewBox="0 0 62 48" fill="none" xmlns="http://www.w3.org/2000/svg">
  <g clip-path="url(#clip0_720_2744)">
    <path
      d="M36.6095 20.6663L27.8606 18.595C26.6522 18.3089 25.4526 19.0585 25.1665 20.267L21.0129 37.7622C20.7268 38.9706 21.4629 40.1786 22.6713 40.4647L35.8056 43.5742C37.0141 43.8603 38.2246 43.1133 38.5107 41.9048L41.6177 28.7815L36.6095 20.6663ZM34.6541 38.682L25.9052 36.6106L26.423 34.4234L35.1719 36.4947L34.6541 38.682ZM35.6897 34.3075L26.9408 32.2362L27.4587 30.0489L36.2076 32.1203L35.6897 34.3075ZM33.7035 28.0627L35.1275 22.0478L39.7183 29.4867L33.7035 28.0627Z"
      fill="#20A5FD" />
  </g>
  <path
    d="M6.49504 17.896L10.1383 21.2044L14.4106 18.7619L12.3899 23.2492L16.0331 26.5576L11.141 26.0224L9.12029 30.5097L8.11753 25.6917L3.22545 25.1565L7.4978 22.714L6.49504 17.896Z"
    fill="#FFD600" />
  <path
    d="M46.8541 25.372L51.6239 26.5835L54.25 22.4214L54.5718 27.3322L59.3417 28.5436L54.7707 30.3672L55.0926 35.2779L51.9457 31.4942L47.3748 33.3178L50.0009 29.1557L46.8541 25.372Z"
    fill="#FFD600" />
  <path
    d="M32.964 7.48173L28.7538 10.0299L29.8763 14.8215L26.1518 11.6048L21.9416 14.153L23.8499 9.61676L20.1254 6.40006L25.0293 6.81322L26.9377 2.27701L28.0601 7.06857L32.964 7.48173Z"
    fill="#FFD600" />
  <defs>
    <clipPath id="clip0_720_2744">
      <rect width="26.9723" height="26.9723" fill="white" transform="translate(21.8167 14.8545) rotate(13.3197)" />
    </clipPath>
  </defs>
</svg>