<svg width="33" height="34" viewBox="0 0 33 34" fill="none" xmlns="http://www.w3.org/2000/svg">
  <path fill-rule="evenodd" clip-rule="evenodd"
    d="M11.3034 0.920429C7.21537 2.32176 3.73195 5.38656 1.7917 9.26507C1.1149 10.6031 0.627568 12.0225 0.329759 13.4962C-0.410233 17.1487 0.104157 21.0453 1.78268 24.3723C2.87465 26.5421 4.44488 28.4768 6.34003 29.9866C8.13586 31.415 10.2205 32.4819 12.4405 33.0695C15.2381 33.8199 18.2161 33.8018 21.0317 33.1599C23.5766 32.5723 25.9861 31.3518 27.9083 29.5798C29.9388 27.7083 31.3918 25.2492 32.1588 22.6003C32.9979 19.7163 33.1063 16.6333 32.5832 13.668C27.3217 13.668 22.0515 13.668 16.7902 13.668C16.7902 15.8558 16.7902 18.0437 16.7902 20.2316C19.8405 20.2316 22.8908 20.2316 25.941 20.2316C25.589 22.3291 24.3437 24.2457 22.5839 25.43C21.4739 26.1804 20.2015 26.6596 18.8839 26.8947C17.5664 27.1207 16.1947 27.1478 14.8771 26.8856C13.5325 26.6144 12.26 26.0538 11.141 25.2673C9.35416 24.0106 7.99149 22.1754 7.2966 20.105C6.58367 17.9985 6.57465 15.6569 7.2966 13.5595C7.80197 12.0768 8.63221 10.7116 9.7332 9.59054C11.0868 8.19827 12.8466 7.20376 14.7508 6.79695C16.3751 6.4534 18.0898 6.51667 19.6781 6.99582C21.0317 7.40268 22.2771 8.15304 23.2969 9.12947C24.3256 8.09884 25.3544 7.06816 26.3832 6.03752C26.9247 5.48604 27.4932 4.95259 28.0166 4.38303C26.4554 2.93651 24.6144 1.77023 22.611 1.02889C19.0012 -0.309125 14.9402 -0.336271 11.3034 0.920429Z"
    fill="white" />
  <path fill-rule="evenodd" clip-rule="evenodd"
    d="M11.3035 0.920497C14.9313 -0.336204 19.0013 -0.309058 22.611 1.01993C24.6144 1.76128 26.4464 2.9185 28.0166 4.37407C27.4932 4.94364 26.9247 5.47704 26.3832 6.02853C25.3544 7.0592 24.3256 8.08984 23.2969 9.12048C22.2771 8.14409 21.0317 7.40275 19.6781 6.98687C18.0898 6.50772 16.3752 6.43539 14.7508 6.78795C12.8557 7.19481 11.0959 8.18928 9.7332 9.58158C8.63226 10.6936 7.80197 12.0678 7.29665 13.5505C5.46469 12.122 3.63273 10.7026 1.79175 9.27421C3.732 5.38663 7.21542 2.32182 11.3035 0.920497Z"
    fill="#EA4335" />
  <path fill-rule="evenodd" clip-rule="evenodd"
    d="M0.338802 13.4869C0.636612 12.0223 1.12394 10.5939 1.80079 9.25586C3.6327 10.6843 5.46466 12.1037 7.30564 13.5321C6.58369 15.6387 6.58369 17.9802 7.30564 20.0777C5.47368 21.5061 3.64177 22.9346 1.80981 24.354C0.113201 21.036 -0.401189 17.1394 0.338802 13.4869Z"
    fill="#FBBC05" />
  <path fill-rule="evenodd" clip-rule="evenodd"
    d="M16.7903 13.6592C22.0515 13.6592 27.3217 13.6592 32.5831 13.6592C33.1063 16.6155 32.9891 19.6984 32.1588 22.5915C31.3917 25.2404 29.9388 27.6995 27.9083 29.571C26.1305 28.1878 24.3527 26.8045 22.5749 25.4213C24.3346 24.2369 25.58 22.3203 25.932 20.2228C22.8817 20.2228 19.8315 20.2228 16.7812 20.2228C16.7903 18.0349 16.7903 15.847 16.7903 13.6592Z"
    fill="#4285F4" />
  <path fill-rule="evenodd" clip-rule="evenodd"
    d="M1.79175 24.3632C3.62371 22.9438 5.45567 21.5154 7.28758 20.0869C7.99149 22.1573 9.34515 23.9925 11.132 25.2492C12.251 26.0358 13.5325 26.5963 14.8681 26.8675C16.1857 27.1388 17.5483 27.1026 18.8749 26.8766C20.1925 26.6415 21.4649 26.1623 22.5749 25.4119C24.3528 26.7952 26.1305 28.1784 27.9083 29.5617C25.9862 31.3427 23.5766 32.5542 21.0317 33.1418C18.2162 33.7837 15.2381 33.8018 12.4405 33.0515C10.2205 32.4638 8.13591 31.406 6.34003 29.9685C4.45395 28.4678 2.88372 26.533 1.79175 24.3632Z"
    fill="#34A853" />
</svg>