<svg width="32" height="32" viewBox="0 0 32 32" fill="none" xmlns="http://www.w3.org/2000/svg">
  <path
    d="M18.4077 8.003C18.4277 6.57585 17.288 5.40371 15.8608 5.38369C14.4337 5.36367 13.2615 6.50339 13.2415 7.93054C13.2215 9.35769 14.3612 10.5298 15.7884 10.5498C17.2155 10.5699 18.3877 9.43015 18.4077 8.003ZM18.1903 23.5015C18.2103 22.0743 17.0706 20.9022 15.6434 20.8822C14.2163 20.8621 13.0441 22.0019 13.0241 23.429C13.0041 24.8562 14.1438 26.0283 15.571 26.0483C16.9981 26.0683 18.1703 24.9286 18.1903 23.5015ZM18.299 15.7522C18.319 14.3251 17.1793 13.1529 15.7521 13.1329C14.325 13.1129 13.1528 14.2526 13.1328 15.6798C13.1128 17.1069 14.2525 18.2791 15.6797 18.2991C17.1068 18.3191 18.279 17.1794 18.299 15.7522Z"
    fill="black" />
</svg>