<svg width="13" height="20" viewBox="0 0 13 20" fill="none" xmlns="http://www.w3.org/2000/svg">
  <path
    d="M4.75852 13.549V13.2472C4.76444 12.2114 4.85618 11.3858 5.03374 10.7702C5.21721 10.1547 5.48355 9.65755 5.83274 9.27876C6.18194 8.89998 6.60215 8.5567 7.0934 8.24893C7.46035 8.01219 7.78883 7.76657 8.07884 7.51207C8.36885 7.25758 8.59967 6.97644 8.77131 6.66868C8.94295 6.355 9.02876 6.0058 9.02876 5.62109C9.02876 5.21271 8.93111 4.85464 8.7358 4.54688C8.54048 4.23911 8.27711 4.00237 7.94567 3.83665C7.62015 3.67093 7.25911 3.58807 6.86257 3.58807C6.47786 3.58807 6.11387 3.67389 5.7706 3.84553C5.42732 4.01124 5.14619 4.25982 4.9272 4.59126C4.70822 4.91678 4.58984 5.32221 4.57209 5.80753H0.949929C0.979522 4.62382 1.26361 3.64725 1.8022 2.87784C2.34079 2.10251 3.05398 1.52545 3.94176 1.14666C4.82955 0.761955 5.80907 0.569602 6.88033 0.569602C8.05812 0.569602 9.09979 0.764914 10.0053 1.15554C10.9109 1.54025 11.6211 2.09955 12.136 2.83345C12.6509 3.56735 12.9084 4.45218 12.9084 5.48793C12.9084 6.1804 12.793 6.79593 12.5621 7.33452C12.3372 7.86719 12.0206 8.34067 11.6122 8.75497C11.2038 9.16335 10.7215 9.53326 10.1651 9.8647C9.69756 10.1429 9.31286 10.4329 9.01101 10.7347C8.71508 11.0366 8.49313 11.3858 8.34517 11.7823C8.20313 12.1789 8.12914 12.6671 8.12322 13.2472V13.549H4.75852ZM6.51634 19.2308C5.92448 19.2308 5.41844 19.0237 4.99822 18.6094C4.58393 18.1892 4.37974 17.6861 4.38565 17.1001C4.37974 16.5201 4.58393 16.023 4.99822 15.6087C5.41844 15.1944 5.92448 14.9872 6.51634 14.9872C7.0786 14.9872 7.5728 15.1944 7.99894 15.6087C8.42507 16.023 8.6411 16.5201 8.64702 17.1001C8.6411 17.4908 8.53752 17.8488 8.33629 18.1744C8.14098 18.494 7.88352 18.7514 7.56392 18.9467C7.24432 19.1361 6.89512 19.2308 6.51634 19.2308Z"
    fill="black" />
</svg>