<svg width="57" height="57" viewBox="0 0 57 57" fill="none" xmlns="http://www.w3.org/2000/svg">
  <g clip-path="url(#clip0_923_1212)">
    <path
      d="M38 26.125C41.9306 26.125 45.1012 22.9306 45.1012 19C45.1012 15.0694 41.9306 11.875 38 11.875C34.0694 11.875 30.875 15.0694 30.875 19C30.875 22.9306 34.0694 26.125 38 26.125ZM19 26.125C22.9306 26.125 26.1012 22.9306 26.1012 19C26.1012 15.0694 22.9306 11.875 19 11.875C15.0694 11.875 11.875 15.0694 11.875 19C11.875 22.9306 15.0694 26.125 19 26.125ZM19 30.875C13.4544 30.875 2.375 33.6537 2.375 39.1875V45.125H35.625V39.1875C35.625 33.6537 24.5456 30.875 19 30.875ZM38 30.875C37.3112 30.875 36.5394 30.9225 35.7081 31.0056C38.4631 32.9888 40.375 35.6606 40.375 39.1875V45.125H54.625V39.1875C54.625 33.6537 43.5456 30.875 38 30.875Z"
      fill="#081F41" />
  </g>
  <defs>
    <clipPath id="clip0_923_1212">
      <rect width="57" height="57" fill="white" />
    </clipPath>
  </defs>
</svg>