<svg width="20" height="20" viewBox="0 0 20 20" fill="none" xmlns="http://www.w3.org/2000/svg">
  <g clip-path="url(#clip0_715_2877)">
    <path
      d="M16.1868 5.69971L16.5404 5.34616L16.1868 4.99261L15.0077 3.81344L14.6541 3.45989L14.3006 3.81344L9.99996 8.11405L5.69935 3.81344L5.34579 3.45989L4.99224 3.81344L3.81307 4.99261L3.45952 5.34616L3.81307 5.69971L8.11369 10.0003L3.81307 14.3009L3.45952 14.6545L3.81307 15.008L4.99224 16.1872L5.34579 16.5408L5.69935 16.1872L9.99996 11.8866L14.3006 16.1872L14.6541 16.5408L15.0077 16.1872L16.1868 15.008L16.5404 14.6545L16.1868 14.3009L11.8862 10.0003L16.1868 5.69971Z"
      fill="#081F41" stroke="#081F41" />
  </g>
  <defs>
    <clipPath id="clip0_715_2877">
      <rect width="20" height="20" fill="white" />
    </clipPath>
  </defs>
</svg>